# xmcd
#
# Track frame offsets: 
#        150
#        22942
#        44289
#        60291
#        82166
#        106156
#        124994
#        140892
#        157291
#        175660
#        196500
#        212496
#        232196
#        249224
#        272055
#        290537
#        313332
#        328326
#        345553
#
# Disc length: 4802 seconds
#
# Revision: 0
# Processed by: cddbd v1.5.1PL2 Copyright (c) Steve Scherf et al.
# Submitted via: ExactAudioCopy v0.95a4
#
DISCID=1b12c013
DTITLE=ROBIN TROWER - Music History MTV
DYEAR=1900
DGENRE=Blues
TTITLE0=Bridge Of Sighs
TTITLE1=Shining Through
TTITLE2=Breathless
TTITLE3=Blue For Soul
TTITLE4=I Can`t Wait Much Longer
TTITLE5=In My Dream
TTITLE6=Next In Line
TTITLE7=Shame The Devil
TTITLE8=Take This River
TTITLE9=Someday Blues
TTITLE10=Fine Day
TTITLE11=Too Much Joy
TTITLE12=Ballerina
TTITLE13=Into Dust
TTITLE14=Extermination Blues
TTITLE15=Day Of The Eagle
TTITLE16=On Your Own
TTITLE17=About To Begin
TTITLE18=Long Hard Game
EXTD=
EXTT0=
EXTT1=
EXTT2=
EXTT3=
EXTT4=
EXTT5=
EXTT6=
EXTT7=
EXTT8=
EXTT9=
EXTT10=
EXTT11=
EXTT12=
EXTT13=
EXTT14=
EXTT15=
EXTT16=
EXTT17=
EXTT18=
PLAYORDER=
